<?xml version="1.0" encoding="utf-8"?>
<!DOCTYPE svg PUBLIC "-//W3C//DTD SVG 1.1//EN" "http://www.w3.org/Graphics/SVG/1.1/DTD/svg11.dtd">
<svg version="1.1" id="Contours" xmlns="http://www.w3.org/2000/svg" xmlns:xlink="http://www.w3.org/1999/xlink" x="0px" y="0px" width="100%" height="100%" viewBox="0 0 1080 210" xml:space="preserve" stroke="black" fill="none" stroke-linecap='round' stroke-linejoin='round'><desc xmlns:shape="http://adobe.com/products/shape"><shape:version>1.0</shape:version><shape:captureDetail>1.000000</shape:captureDetail><shape:sourceImage></shape:sourceImage><shape:source>0</shape:source><shape:platformVersion>shape-android-1.2</shape:platformVersion></desc>
<path fill="#33CC33" stroke="#33CC33" opacity="1.00" 
 d="
M35.0 68.4 C42.7 101.1 50.5 133.9 58.2 166.6 C68.1 135.4 77.9 104.1 87.8 72.9 C88.8 69.9 89.8 66.7 92.1 64.5 C96.8 59.9 105.0 61.5 109.8 65.9 C114.5 70.4 116.6 76.9 118.6 83.2 C127.4 111.0 136.1 138.8 144.9 166.6 C152.0 134.6 159.1 102.7 166.2 70.8 C167.3 65.9 172.3 62.7 177.3 62.0 C182.3 61.4 187.3 62.8 192.1 64.2 C181.1 106.0 170.2 147.7 159.2 189.5 C158.6 192.0 157.9 194.5 156.4 196.5 C152.1 202.1 142.9 201.3 137.6 196.7 C132.3 192.1 129.9 185.0 127.7 178.3 C118.7 150.3 109.7 122.3 100.7 94.2 C91.7 122.4 82.7 150.6 73.8 178.7 C71.7 185.0 69.6 191.6 64.8 196.2 C60.0 200.7 51.7 202.3 46.9 197.8 C44.3 195.3 43.2 191.7 42.2 188.3 C30.7 146.9 19.7 105.3 9.4 63.6 C15.5 63.3 21.5 63.0 27.6 62.7 C29.3 62.6 31.2 62.6 32.6 63.6 C34.1 64.6 34.6 66.6 35.0 68.4" />
<path fill="#33CC33" stroke="#33CC33" opacity="1.00" 
 d="
M223.0 37.7 C223.0 32.1 223.0 26.6 223.0 21.0 C223.0 19.9 223.0 18.7 223.6 17.8 C224.6 16.1 226.9 16.0 228.9 16.0 C233.2 16.0 237.5 16.0 241.8 15.9 C244.2 15.9 246.8 16.1 248.2 18.0 C249.1 19.3 249.1 20.9 249.1 22.4 C249.1 27.5 249.0 32.6 249.0 37.7 C249.0 38.5 249.0 39.4 248.4 40.1 C247.7 40.9 246.4 41.0 245.3 41.0 C239.1 41.0 233.0 41.0 226.8 41.0 C225.6 41.0 224.2 40.9 223.5 39.9 C223.0 39.3 223.0 38.5 223.0 37.7" />
<path fill="#33CC33" stroke="#33CC33" opacity="1.00" 
 d="
M244.3 63.0 C245.3 63.0 246.3 63.0 247.1 63.7 C247.9 64.4 248.0 65.7 248.0 66.8 C248.0 108.6 248.0 150.3 248.0 192.1 C248.0 194.2 247.9 196.5 246.4 197.8 C245.3 198.8 243.7 199.0 242.2 199.1 C236.1 199.5 230.0 199.0 224.0 197.6 C224.0 154.0 224.0 110.5 224.0 67.0 C224.0 65.8 224.1 64.4 225.0 63.7 C225.7 63.0 226.8 63.0 227.8 63.0 C233.3 63.0 238.8 63.0 244.3 63.0" />
<path fill="#33CC33" stroke="#33CC33" opacity="1.00" 
 d="
M315.1 18.0 C315.1 75.7 315.1 133.4 315.0 191.1 C315.0 195.8 310.4 199.4 305.7 200.0 C301.1 200.7 296.4 199.0 292.0 197.4 C292.0 135.2 292.0 72.9 292.0 10.7 C296.5 9.3 301.3 7.9 305.9 8.7 C310.6 9.5 315.1 13.2 315.1 18.0" />
<path fill="#33CC33" stroke="#33CC33" opacity="1.00" 
 d="
M449.2 195.7 C434.8 200.6 419.4 203.3 404.3 201.4 C389.1 199.5 374.4 192.6 364.6 180.9 C355.2 169.6 351.2 154.8 349.9 140.2 C347.7 114.2 355.2 85.5 376.5 70.5 C397.9 55.4 427.3 58.1 451.9 66.7 C454.0 67.5 456.1 68.3 457.4 70.0 C458.9 72.0 459.0 74.6 459.1 77.1 C459.2 84.1 459.3 91.1 459.5 98.1 C448.8 90.3 437.0 83.3 424.0 80.9 C410.9 78.4 396.3 81.1 386.9 90.5 C377.6 99.7 374.8 113.5 374.1 126.6 C373.3 143.6 376.5 162.5 389.8 173.3 C399.5 181.2 413.2 183.0 425.5 180.3 C437.7 177.6 448.7 170.9 458.6 163.1 C459.7 169.2 460.9 175.4 459.9 181.6 C458.8 187.7 455.1 193.7 449.2 195.7" />
<path fill="#33CC33" stroke="#33CC33" opacity="1.00" 
 d="
M797.7 38.0 C796.4 38.0 794.9 37.9 793.9 36.9 C792.9 36.0 792.8 34.4 792.9 32.9 C792.9 27.8 793.0 22.6 793.1 17.4 C831.8 16.9 870.6 16.8 909.4 17.0 C911.3 17.0 913.5 17.1 914.9 18.4 C916.1 19.4 916.5 20.9 916.9 22.3 C920.4 37.6 912.9 53.0 905.6 66.8 C883.8 108.2 861.9 149.5 840.1 190.9 C834.7 201.2 820.0 200.5 808.6 198.3 C837.2 144.9 865.9 91.5 894.6 38.1 C862.3 38.1 830.0 38.0 797.7 38.0" />
<path fill="#33CC33" stroke="#33CC33" opacity="1.00" 
 d="
M491.7 83.5 C503.8 66.4 525.1 56.3 546.0 57.9 C566.9 59.4 586.6 72.6 596.0 91.3 C600.5 100.4 602.8 110.5 603.8 120.6 C605.8 140.4 602.9 161.4 591.5 177.7 C579.7 194.5 558.9 204.7 538.4 203.6 C517.8 202.6 498.2 190.5 488.1 172.6 C481.4 160.7 478.9 147.0 478.6 133.4 C478.2 115.9 481.6 97.8 491.7 83.5 M503.5 123.7 C502.4 140.5 503.9 159.0 515.5 171.2 C523.3 179.5 535.3 183.7 546.6 182.1 C557.9 180.5 568.2 173.2 573.4 163.0 C576.3 157.5 577.6 151.3 578.5 145.1 C579.7 136.0 579.9 126.7 579.0 117.5 C578.4 111.6 577.3 105.8 575.0 100.4 C569.5 87.9 556.4 79.1 542.7 78.6 C529.1 78.2 515.5 86.2 509.2 98.3 C505.1 106.0 504.0 114.9 503.5 123.7" />
<path fill="#33CC33" stroke="#33CC33" opacity="1.00" 
 d="
M987.1 86.3 C1000.8 85.5 1014.8 84.8 1028.3 87.5 C1041.8 90.1 1055.0 96.6 1063.3 107.6 C1071.9 119.0 1074.2 134.3 1072.4 148.6 C1070.5 163.1 1064.3 177.5 1053.4 187.4 C1041.8 197.8 1025.9 202.5 1010.3 203.0 C994.7 203.5 979.2 200.2 964.1 196.5 C961.4 195.9 958.6 195.2 956.7 193.2 C954.2 190.8 953.7 187.1 953.6 183.6 C953.3 177.0 954.1 170.4 955.7 164.1 C968.4 173.9 983.7 181.1 999.8 181.7 C1015.9 182.3 1032.7 175.5 1041.7 162.2 C1050.7 148.9 1050.1 129.0 1038.4 117.9 C1029.1 109.0 1015.3 107.0 1002.4 106.8 C988.9 106.6 975.3 108.0 962.1 110.9 C962.1 81.5 962.0 52.1 961.9 22.7 C961.9 21.2 962.0 19.5 963.0 18.4 C964.2 17.2 966.0 17.1 967.6 17.1 C1001.9 16.8 1036.1 16.9 1070.4 17.3 C1071.6 24.1 1071.6 31.2 1070.6 38.0 C1044.3 38.0 1018.1 38.0 991.9 38.0 C990.4 38.0 988.8 38.0 987.7 39.0 C986.5 40.0 986.3 41.8 986.2 43.5 C985.4 57.7 985.7 72.1 987.1 86.3" />
<path fill="#33CC33" stroke="#33CC33" opacity="1.00" 
 d="
M651.1 19.9 C671.1 14.8 692.0 10.0 712.2 14.3 C732.3 18.5 751.6 34.6 752.6 55.2 C753.6 75.4 736.1 93.4 716.3 97.9 C717.4 100.6 720.8 101.2 723.7 101.8 C746.4 106.5 760.7 132.7 756.0 155.4 C751.3 178.1 731.0 195.5 708.5 201.1 C686.1 206.7 662.0 201.9 640.9 192.4 C639.3 191.7 637.5 190.8 636.6 189.3 C635.7 187.8 635.7 185.9 635.8 184.1 C635.9 177.3 636.1 170.4 636.2 163.5 C650.6 171.8 665.9 179.6 682.4 181.2 C699.0 182.7 717.2 176.7 726.0 162.6 C733.1 151.2 732.6 135.5 724.8 124.5 C717.0 113.6 702.3 108.0 689.2 110.9 C684.5 112.0 679.8 108.0 678.6 103.3 C677.4 98.7 678.8 93.7 680.7 89.3 C692.9 91.0 706.3 89.1 715.9 81.3 C725.4 73.4 729.7 58.6 723.3 48.0 C716.9 37.4 702.9 34.4 690.6 34.9 C673.3 35.7 656.4 41.7 642.5 51.9 C641.0 46.0 639.4 39.8 640.3 33.7 C641.2 27.5 645.1 21.4 651.1 19.9" />
</svg>