<?xml version="1.0" standalone="no"?>
<!DOCTYPE svg PUBLIC "-//W3C//DTD SVG 20010904//EN"
 "http://www.w3.org/TR/2001/REC-SVG-20010904/DTD/svg10.dtd">
<svg version="1.0" xmlns="http://www.w3.org/2000/svg"
 width="160.000000pt" height="160.000000pt" viewBox="0 0 160.000000 160.000000"
 preserveAspectRatio="xMidYMid meet">
<metadata>
Created by potrace 1.12, written by Peter Selinger 2001-2015
</metadata>
<g transform="translate(0.000000,160.000000) scale(0.100000,-0.100000)"
fill="#000000" stroke="none">
<path d="M96 1234 c-20 -20 -20 -48 0 -68 14 -14 91 -16 704 -16 613 0 690 2
704 16 20 20 20 48 0 68 -14 14 -91 16 -704 16 -613 0 -690 -2 -704 -16z"/>
<path d="M96 834 c-20 -20 -20 -48 0 -68 14 -14 91 -16 704 -16 613 0 690 2
704 16 20 20 20 48 0 68 -14 14 -91 16 -704 16 -613 0 -690 -2 -704 -16z"/>
<path d="M96 434 c-20 -20 -20 -48 0 -68 14 -14 91 -16 704 -16 613 0 690 2
704 16 20 20 20 48 0 68 -14 14 -91 16 -704 16 -613 0 -690 -2 -704 -16z"/>
</g>
</svg>
